<?xml version="1.0" encoding="utf-8"?>
<!-- Generator: Adobe Illustrator 25.4.1, SVG Export Plug-In . SVG Version: 6.00 Build 0)  -->
<svg version="1.1" id="Layer_1" xmlns="http://www.w3.org/2000/svg" xmlns:xlink="http://www.w3.org/1999/xlink" x="0px" y="0px"
	 viewBox="0 0 326 88" style="enable-background:new 0 0 326 88;" xml:space="preserve">
<style type="text/css">
	.st0{fill:#70A2D6;}
</style>
<g>
	<g>
		<rect x="204.8" y="5.3" class="st0" width="5.6" height="46.5"/>
		<path class="st0" d="M45.2,46.7c0,0-0.7,1.5-1.7,2.9c-1,1.4-1.6,2.1-3.6,2.1c-2,0-22.9,0-22.9,0v0c0,0,0-43.2,0-44.4s0.9-2,2-2
			c1.1,0,3.6,0,3.6,0v41.3L45.2,46.7z"/>
		<path class="st0" d="M108.6,5.3v46.4h5.6V18.9c0,0,24.8,31.9,24.9,32c0.1,0.1,0.7,0.9,2.1,0.9c0.1,0,0.6,0,0.6,0V5.3h-5.4v34.5
			L109.7,5C109.3,4.5,108.6,4.8,108.6,5.3z"/>
		<path class="st0" d="M75,16.7c0,0,13.7,33,14.1,33.7s1.1,1.3,1.9,1.3c0.8,0,4.1,0,4.1,0L75.6,5.1c-0.2-0.5-1-0.5-1.2,0L55,51.7
			c0,0,3.3,0,4.1,0c0.8,0,1.6-0.5,1.9-1.3C61.3,49.7,75,16.7,75,16.7z"/>
		<path class="st0" d="M158.5,5.3H188c0,0-0.7,1.5-1.7,2.9c-1,1.4-1.6,2.1-3.6,2.1c-2,0-18.7,0-18.7,0l0,15.3h21.1v4.3H164l0,16.6
			c0,0,16.6,0,18.6,0c2,0,2.6,0.7,3.6,2.1c1,1.4,1.7,2.9,1.7,2.9h-29.5V5.3H188"/>
		<path class="st0" d="M263.3,17c-0.8-3.2-2.8-6.3-5.5-8.5c-3.2-2.7-7.3-4-12-4c-5.9,0-10.7,2.2-14.2,6.7
			c-3.6,4.4-5.3,10.3-5.3,17.5c0,7.3,1.8,13.2,5.3,17.6c3.5,4.4,8.3,6.6,14.3,6.6c5.5,0,10-1.8,13.3-5.2c3.4-3.5,5-8,5-13.8
			c0-2.8,0-6,0-6s-10.4,0-12.3,0s-2.6,0.8-3.6,2.1c-1,1.3-1.6,2.2-1.6,2.2h12v1.7c0,4.3-1.1,7.5-3.5,10c-2.3,2.4-5.3,3.5-9.3,3.5
			c-4.2,0-7.5-1.5-9.9-4.5c-2.7-3.4-4.1-8.1-4.1-14.1c0-5.9,1.4-10.7,4.1-14c2.5-3.1,5.7-4.6,9.9-4.6c3.5,0,6.3,0.9,8.5,2.7
			c1,0.8,2.2,2.5,2.4,2.7c0.7,0.9,1.5,1.5,2.6,1.5L263.3,17L263.3,17z"/>
		<path class="st0" d="M279.3,5.3h29.5c0,0-0.7,1.5-1.7,2.9c-1,1.4-1.6,2.1-3.6,2.1c-2,0-18.7,0-18.7,0v15.3H306v4.3h-21.1v16.6
			c0,0,16.6,0,18.6,0c2,0,2.6,0.7,3.6,2.1c1,1.4,1.7,2.9,1.7,2.9h-29.5L279.3,5.3h29.5"/>
	</g>
	<rect x="17" y="82" class="st0" width="143.6" height="1"/>
	<g>
		<path class="st0" d="M254,83.2c-4.5,0-8-3.5-8-8c0-4.4,3.6-8,8-8c1.9,0,3.9,0.7,5.4,2.1c0.1,0.1,0.1,0.1,0.1,0.2
			c0,0.1,0,0.2-0.1,0.2l-1.4,1.5c-0.1,0.1-0.1,0.1-0.2,0.1c-0.1,0-0.1,0-0.2-0.1c-1-0.9-2.2-1.3-3.5-1.3c-2.9,0-5.2,2.4-5.2,5.4
			c0,2.9,2.3,5.3,5.2,5.3c1.3,0,2.3-0.4,2.7-0.6l0.1,0v-2.1H255c-0.2,0-0.3-0.1-0.3-0.3v-1.8c0-0.2,0.1-0.3,0.3-0.3h4.3
			c0.1,0,0.3,0.1,0.3,0.3v5.8c0,0.1,0,0.2-0.1,0.3C259.5,81.8,257.2,83.2,254,83.2z"/>
		<path class="st0" d="M263.4,83c-0.2,0-0.3-0.2-0.3-0.3v-15c0-0.1,0.1-0.3,0.3-0.3h2.1c0.2,0,0.3,0.1,0.3,0.3v12.8h5.9
			c0.2,0,0.3,0.2,0.3,0.3v1.9c0,0.1-0.1,0.3-0.3,0.3C271.7,83,263.4,83,263.4,83z"/>
		<path class="st0" d="M280.9,83.3c-4.5,0-8-3.5-8-8c0-4.4,3.6-8,8-8c4.4,0,8,3.6,8,8C288.9,79.8,285.4,83.3,280.9,83.3z
			 M280.9,69.9c-2.9,0-5.3,2.4-5.3,5.4c0,2.9,2.4,5.3,5.3,5.3c2.9,0,5.3-2.4,5.3-5.3C286.3,72.3,283.9,69.9,280.9,69.9z"/>
		<path class="st0" d="M304,83.3c-0.2,0-0.2-0.1-0.3-0.2l-4.1-10.3h-0.3l-4,10.3c-0.1,0.1-0.1,0.2-0.3,0.2h-0.4
			c-0.1,0-0.3-0.1-0.3-0.2l-4.3-15.2c0-0.1,0-0.2,0-0.3c0-0.1,0.1-0.1,0.3-0.1h2.1c0.1,0,0.3,0.1,0.3,0.2l2.4,9.1h0.3l3.6-9.4
			c0-0.1,0.1-0.2,0.3-0.2h0.4c0.1,0,0.2,0.1,0.3,0.2l3.7,9.4h0.3l2.3-9.1c0-0.1,0.2-0.2,0.3-0.2h2.1c0.1,0,0.2,0,0.3,0.1
			c0.1,0.1,0.1,0.2,0,0.3L304.7,83c0,0.1-0.2,0.2-0.3,0.2H304z"/>
		<path class="st0" d="M212.5,74.5h-1.2c-0.3,0-0.5-0.2-0.5-0.5v-0.9c0-0.3,0.2-0.5,0.5-0.5h1.2v-2.8c0-0.3,0.2-0.5,0.5-0.5h1.2
			c0.3,0,0.5,0.2,0.5,0.5v2.8h2.7c0.3,0,0.5,0.2,0.5,0.5V74c0,0.2-0.2,0.5-0.5,0.5h-2.7v5.4c0,0.9,0.3,1,0.8,1
			c0.6,0,1.2-0.3,1.6-0.5c0.3-0.2,0.5,0,0.6,0.2l0.4,1c0.1,0.3,0,0.4-0.2,0.6c-0.4,0.3-1.6,0.7-2.8,0.7c-2,0-2.6-1.2-2.6-3
			L212.5,74.5L212.5,74.5z"/>
		<path class="st0" d="M220.1,67.9c0-0.2,0.2-0.5,0.5-0.5h1.2c0.2,0,0.5,0.2,0.5,0.5v5.6c0.2-0.2,1.3-1.1,2.9-1.1
			c2.9,0,3.9,2,3.9,4.8v5.1c0,0.3-0.2,0.5-0.5,0.5h-1.2c-0.3,0-0.5-0.2-0.5-0.5v-5.1c0-1.7-0.7-2.7-2-2.7c-1.6,0-2.4,1-2.7,1.5v6.3
			c0,0.3-0.2,0.5-0.5,0.5h-1.2c-0.3,0-0.5-0.2-0.5-0.5L220.1,67.9L220.1,67.9z"/>
		<path class="st0" d="M236,72.4c2.6,0,4.6,2,4.6,4.6c0,0.2,0,0.5,0,0.7c0,0.3-0.2,0.4-0.5,0.4h-7c0,1.4,1.2,2.8,3,2.8
			c1.2,0,1.9-0.4,2.5-0.9c0.2-0.2,0.4-0.2,0.6,0l0.6,0.9c0.2,0.2,0.3,0.4,0,0.7c-0.7,0.6-2.1,1.2-3.7,1.2c-3.1,0-5.1-2.4-5.1-5.3
			C230.9,74.9,232.9,72.4,236,72.4z M238.4,76.6c0-1.2-1-2.3-2.5-2.3c-1.6,0-2.6,1-2.7,2.3H238.4z"/>
		<path class="st0" d="M159,83c-0.2,0-0.2-0.1-0.2-0.2V67.7c0-0.1,0.1-0.2,0.2-0.2h9.3c0.2,0,0.2,0.1,0.2,0.2v1.9
			c0,0.1-0.1,0.2-0.2,0.2h-6.9v4.7h5.8c0.1,0,0.2,0.1,0.2,0.2v1.9c0,0.1-0.1,0.2-0.2,0.2h-5.8v5.9c0,0.1-0.1,0.2-0.2,0.2L159,83
			L159,83z"/>
		<path class="st0" d="M171.7,83c-0.2,0-0.2-0.1-0.2-0.2V67.7c0-0.1,0.1-0.2,0.2-0.2h9.3c0.2,0,0.2,0.1,0.2,0.2v1.9
			c0,0.1-0.1,0.2-0.2,0.2H174v4.1h5.8c0.1,0,0.2,0.1,0.2,0.2v1.9c0,0.2-0.1,0.2-0.2,0.2H174v4.4h6.9c0.2,0,0.2,0.1,0.2,0.2v1.9
			c0,0.1-0.1,0.2-0.2,0.2L171.7,83L171.7,83z"/>
		<path class="st0" d="M184.8,83c-0.2,0-0.2-0.1-0.2-0.2V67.7c0-0.1,0.1-0.2,0.2-0.2h9.3c0.2,0,0.2,0.1,0.2,0.2v1.9
			c0,0.1-0.1,0.2-0.2,0.2h-6.9v4.1h5.8c0.1,0,0.2,0.1,0.2,0.2v1.9c0,0.2-0.1,0.2-0.2,0.2h-5.8v4.4h6.9c0.2,0,0.2,0.1,0.2,0.2v1.9
			c0,0.1-0.1,0.2-0.2,0.2L184.8,83L184.8,83z"/>
		<path class="st0" d="M197.9,83c-0.2,0-0.2-0.1-0.2-0.2V67.7c0-0.1,0.1-0.2,0.2-0.2h2.1c0.1,0,0.2,0.1,0.2,0.2v13h6
			c0.2,0,0.2,0.1,0.2,0.2v1.9c0,0.1-0.1,0.2-0.2,0.2L197.9,83L197.9,83z"/>
	</g>
</g>
</svg>
